<?xml version="1.0" encoding="utf-8"?>
<!-- Generator: Adobe Illustrator 19.2.1, SVG Export Plug-In . SVG Version: 6.00 Build 0)  -->
<svg version="1.1" id="Layer_1" xmlns="http://www.w3.org/2000/svg" xmlns:xlink="http://www.w3.org/1999/xlink" x="0px" y="0px"
	 viewBox="0 0 1178.3 376.4" style="enable-background:new 0 0 1178.3 376.4;" xml:space="preserve">
<style type="text/css">
	.st0{fill:#FFFFFF;}
	.st1{fill:#FFFFFF;}
	.st2{fill:#FFFFFF;}
	.st3{fill:#FFFFFF;}
</style>
<path class="st0" d="M819.3,298.3v-6.4c0-13.1,6.1-19.8,18.4-20c1.3-0.1,2.6-0.1,3.9-0.1c9.8,0,17.6,1.1,23.5,3.3v13.3
	c-6.3-0.7-11.7-1-16.1-1h-6.9c-2.8,0-4.7,0.3-5.8,1c-1.1,0.7-1.7,2.4-1.7,5.1v2.6c0,2.4,0.3,3.9,1,4.6c1.1,1.1,2.9,1.7,5.5,1.7h9.8
	c4.5,0,7.9,1.2,10.5,3.6c4.1,3.9,6.2,9.7,6.2,17.3v4.4c0,9.8-2.8,16.2-8.3,19.3c-2.9,1.6-6.4,2.4-10.6,2.4c-7.3,0-12.7-0.2-16.2-0.6
	c-3.5-0.4-7.2-1.3-11.1-2.7v-13.3c6.8,0.8,14.8,1.1,23.8,1.1c2.2,0,4-0.4,5.2-1.1c1.2-0.8,1.9-2.2,1.9-4.4v-3c0-2.1-0.4-3.6-1.2-4.6
	c-0.8-1-2.3-1.5-4.4-1.5h-9.6c-4.2,0-7.5-0.8-9.9-2.5c-2.6-1.7-4.4-3.7-5.4-5.8c-1.2-2.6-1.9-4.7-2.1-6.3
	C819.5,302.1,819.3,300,819.3,298.3"/>
<path class="st0" d="M871.7,293.3h15.9l7.2,37c0.6,2.5,2.1,3.8,4.5,4l8.3-41h15.6l-18.1,83.2h-15l6.3-28c-8.4,0-13.7-5-16-15
	L871.7,293.3z"/>
<path class="st0" d="M925.6,312.8V308c0-3,0.4-5.6,1.2-7.7c0.8-2.2,2.2-4,4.1-5.4c1.9-1.4,4.9-2.1,8.9-2.1c4,0,7.4,0,10.2,0.1
	c2.8,0.1,5.8,0.4,9,0.9c3.2,0.5,5.4,1.3,6.4,2.2v10.4h-21.6c-1.2,0-2,0.2-2.4,0.6c-0.4,0.4-0.6,1.2-0.6,2.3v1.7
	c0,1.2,0.2,1.9,0.7,2.2c0.5,0.3,1.3,0.5,2.3,0.5h10.7c3.2,0,5.8,0.7,7.8,2.1c3.7,2.4,5.6,6.6,5.6,12.6v5.8c0,5.2-1.2,9-3.4,11.3
	c-2.3,2.4-5.2,3.5-8.6,3.5c-4.9,0-8.9,0-11.8-0.1c-2.9-0.1-6.1-0.4-9.6-0.9c-3.5-0.6-5.7-1.3-6.8-2.4v-10.3h22.5
	c1.7,0,2.5-0.9,2.5-2.7v-1.7c0-1-0.2-1.7-0.5-2.1c-0.3-0.4-1-0.7-2-0.7h-10.3C930.3,328.1,925.6,323,925.6,312.8"/>
<path class="st0" d="M971.3,305.5v-8.9l7.5-3.4l2.4-15.4H994v15.4h9.8v12.4H994v20c0,3.6,0.3,6.1,0.9,7.5c0.6,1.4,1.6,2.4,3,3.1
	c3.2,1.4,5,2.1,5.4,2.1v10.2h-12.4c-2.5,0-4.7-0.6-6.4-1.8c-3.8-2.7-5.7-8.7-5.7-18v-23.2H971.3z"/>
<path class="st0" d="M1034,335.8c6.2,0,11.6-0.4,16.1-1.1V346c-2,1-4.9,1.7-8.5,2.1c-3.6,0.5-6.4,0.7-8.3,0.7c-1.9,0-5,0.1-9.2,0.1
	c-6.1,0-10.3-2.2-12.6-6.5c-2.4-4.4-3.5-11.6-3.5-21.8c0-5.9,0.4-10.6,1.1-14.2c0.7-3.6,2-6.4,3.8-8.4c1.8-2,4-3.4,6.5-4.1
	c2.5-0.7,5.5-1,9-1c3.5,0,6.2,0.1,8,0.3c1.8,0.2,3.6,0.5,5.4,1c1.8,0.5,3.2,1.2,4.2,2.1c1,0.9,2,2.1,2.8,3.6
	c1.5,2.7,2.2,7.1,2.2,13.3c0,7.4-2.7,11.9-8.1,13.5c-1.7,0.6-3.7,0.8-6,0.8h-13.7c0,3.6,0.6,5.9,1.9,6.9c1.3,1,3.1,1.5,5.4,1.6h2
	H1034z M1032.5,315.9c1.5,0,2.5-0.6,3.1-1.8c0.2-0.6,0.4-1.4,0.4-2.5c0-1.1,0-2.1-0.1-2.9c-0.1-0.8-0.3-1.5-0.7-2
	c-0.6-1-1.9-1.5-3.9-1.5c-2,0-3.4,0.1-4.2,0.3c-0.8,0.2-1.5,0.6-2.2,1.3c-1.1,1.1-1.6,3.8-1.6,8.1c0,0.3,0,0.7,0.1,1H1032.5z"/>
<path class="st0" d="M1100.9,309.4l0.1,3v36h-15.2v-36.3c0-4.4-1.5-6.5-4.5-6.5c-2.1,0-3.9,0.3-5.3,1c-1.4,0.7-2.8,1.8-4.2,3.4v38.5
	h-15.2v-55.1h12.5l2.7,5.7c4-3.5,7.3-5.6,9.8-6.1c1.4-0.3,2.9-0.4,4.7-0.4c6.2,0,10.4,2.3,12.5,6.7c2.7-2.1,5.3-3.7,7.9-4.9
	c2.6-1.2,5.3-1.8,7.9-1.8c2.6,0,4.7,0.2,6.2,0.7c1.5,0.5,2.8,1.1,3.9,2c1.1,0.9,1.9,1.9,2.6,3.1c0.7,1.2,1.3,2.5,1.7,4
	c0.7,2.9,1.1,6.3,1.1,10.3v35.9h-15.2v-36.3c0-4.4-1.4-6.5-4.4-6.5C1106.4,305.5,1103.2,306.8,1100.9,309.4"/>
<path class="st0" d="M1134.7,312.8V308c0-3,0.4-5.6,1.2-7.7c0.8-2.2,2.2-4,4.1-5.4c1.9-1.4,4.9-2.1,8.9-2.1c4,0,7.4,0,10.2,0.1
	c2.8,0.1,5.8,0.4,9,0.9c3.2,0.5,5.4,1.3,6.4,2.2v10.4H1153c-1.2,0-2,0.2-2.4,0.6c-0.4,0.4-0.6,1.2-0.6,2.3v1.7
	c0,1.2,0.2,1.9,0.7,2.2c0.5,0.3,1.3,0.5,2.3,0.5h10.7c3.2,0,5.8,0.7,7.8,2.1c3.7,2.4,5.6,6.6,5.6,12.6v5.8c0,5.2-1.1,9-3.4,11.3
	c-2.3,2.4-5.2,3.5-8.6,3.5c-4.9,0-8.9,0-11.8-0.1c-2.9-0.1-6.1-0.4-9.6-0.9c-3.5-0.6-5.7-1.3-6.8-2.4v-10.3h22.5
	c1.7,0,2.5-0.9,2.5-2.7v-1.7c0-1-0.2-1.7-0.5-2.1c-0.3-0.4-1-0.7-2-0.7H1149C1139.5,328.1,1134.7,323,1134.7,312.8"/>
<polygon class="st0" points="322.6,244.1 340,43.2 395.9,43.2 419.2,169.4 443,43.2 498.7,43.2 516.6,244.1 477.1,244.1 
	465.1,120.9 442.3,244.1 396.9,244.1 373.1,120.9 362.3,244.1 "/>
<path class="st0" d="M537.7,206v-12.6c0-11.9,3.2-21.7,9.6-29.5c6.4-7.8,15.8-11.7,28.2-11.7h34.8c0.2-3.8,0.2-5.9,0-6
	c0-7-1.2-11.4-3.7-13.3c-2.5-1.9-7.4-2.9-15-2.9c-7.5,0-24,1-49.6,3v-27.2c8.2-3.8,16.7-6.5,25.5-8c9-1.5,20.8-2.2,35.4-2.2
	c14.6,0,26.2,3.6,34.7,10.7c8.5,7.1,12.8,19.8,12.8,37.9v99.9h-31.9l-8.3-15.4c-1.3,3.1-5.2,6.7-11.5,10.8
	c-6.4,4.1-13.4,6.2-21.1,6.2c-13.4,0-23.4-4.1-30.1-12.4C541,225.2,537.7,216,537.7,206 M589.5,211.2c7.8,0,14.8-3.5,20.8-10.4
	v-22.2l-23.1,2.2c-6.2,0.6-9.3,5.1-9.3,13.7v4.7c0,5.7,1.3,9.2,3.9,10.4C583.7,210.6,586.2,211.2,589.5,211.2"/>
<path class="st0" d="M674.4,244.1V98.4h34.8l5.4,18.4c4.1-5.7,7.9-9.7,11.4-11.9c3.5-2.3,6.3-3.9,8.2-4.8c4.4-2,9.4-3,14.8-3
	c5.5,0,9.5,0.5,12.1,1.6v43.1c-4.9-0.2-11.2-0.3-18.8-0.3c-7.6,0-13.6,1-17.9,3c-4.3,2-7.6,6.4-9.9,13.2v86.5H674.4z"/>
<polygon class="st0" points="781.8,244.1 781.8,29.5 822.1,29.5 822.1,146.1 828.4,146.1 860.6,98.4 910.9,98.4 865.2,162.3 
	910.9,244.1 863.3,244.1 828.4,178.8 822.1,178.8 822.1,244.1 "/>
<rect x="1000.2" y="43.2" class="st0" width="40.2" height="200.9"/>
<rect x="1069.1" y="43.2" class="st0" width="40.2" height="200.9"/>
<rect x="1138" y="43.2" class="st0" width="40.2" height="200.9"/>
<path class="st1" d="M264.8,100.7c-5.7-9.9-11.4-19.8-17.1-29.7c-9.7-16.9-19.5-33.8-29.2-50.6c-3-5.3-6.1-10.6-9.1-15.8
	c-1-2.6-3.4-4.6-6.5-4.6h-19.6h-58.5H90.4c-0.6,0-1.2,0.1-1.8,0.2C88,0.4,87.4,0.6,86.9,1c-1.1,0.6-1.9,1.5-2.5,2.6
	c-0.6,1-0.9,2.2-0.9,3.5c0,0.7,0.1,1.5,0.4,2.2c0.1,0.5,0.3,0.9,0.6,1.4c3.3,5.7,6.5,11.3,9.8,17c9.7,16.9,19.5,33.8,29.2,50.6
	c5.4,9.4,10.9,18.9,16.3,28.3c0.2,0.4,0.3,0.9,0.6,1.3c0.6,1,1.4,1.9,2.5,2.6c0.5,0.3,1.1,0.6,1.7,0.7c0.6,0.2,1.2,0.2,1.8,0.2h34.3
	h58.5h19.6C264.1,111.2,267.4,105.3,264.8,100.7"/>
<path class="st2" d="M126.3,121.3c0.1-1.3-0.1-2.7-0.9-4c-5.7-9.9-11.4-19.8-17.1-29.7C98.5,70.7,88.7,53.8,79,36.9
	c-3.3-5.7-6.5-11.3-9.8-17c-2.6-4.5-9.4-4.5-12,0C51.4,29.8,45.7,39.7,40,49.6c-9.7,16.9-19.5,33.8-29.2,50.6
	c-3.3,5.7-6.5,11.3-9.8,17c-0.3,0.4-0.5,0.9-0.6,1.4C0.1,119.3,0,120,0,120.8c0,0.2,0,0.4,0,0.6c-0.1,1.3,0.1,2.7,0.9,4
	c5.7,9.9,11.4,19.8,17.1,29.7c9.7,16.9,19.5,33.8,29.2,50.6c3.3,5.7,6.5,11.3,9.8,17c2.6,4.5,9.4,4.5,12,0
	c5.7-9.9,11.4-19.8,17.1-29.7c9.7-16.9,19.5-33.8,29.2-50.6c3.3-5.7,6.5-11.3,9.8-17c0.3-0.4,0.5-0.9,0.6-1.4
	c0.2-0.7,0.4-1.4,0.4-2.1C126.3,121.6,126.3,121.4,126.3,121.3"/>
<path class="st3" d="M266.8,131.6c-0.6-1-1.4-1.9-2.5-2.6c-0.5-0.3-1.1-0.6-1.7-0.7c-0.6-0.2-1.2-0.2-1.8-0.2h-34.3h-58.5h-19.6
	c-1.4,0-2.7,0.4-3.8,1.2c-1.1,0.6-2.1,1.4-2.8,2.6c-3.3,5.7-6.5,11.3-9.8,17c-9.7,16.9-19.5,33.8-29.2,50.6
	c-5.7,9.9-11.4,19.8-17.1,29.7c-2.6,4.6,0.7,10.5,6,10.5h19.6h58.5H204c0.6,0,1.2-0.1,1.8-0.2c0.6-0.2,1.2-0.4,1.7-0.7
	c0.1-0.1,0.3-0.2,0.4-0.3c1.1-0.6,2-1.4,2.7-2.6c5.7-9.9,11.4-19.8,17.1-29.7c9.7-16.9,19.5-33.8,29.2-50.6c3.3-5.7,6.5-11.3,9.8-17
	c0.3-0.4,0.5-0.9,0.6-1.4c0.2-0.7,0.3-1.4,0.3-2.1C267.8,133.8,267.4,132.6,266.8,131.6"/>
</svg>
